<mxfile host="app.diagrams.net" modified="2022-05-08T13:52:34.969Z" agent="5.0 (Macintosh; Intel Mac OS X 10_15_7) AppleWebKit/537.36 (KHTML, like Gecko) Chrome/101.0.4951.54 Safari/537.36" etag="feqrQqA4G6_kwe7EHHz7" version="17.4.6" type="github">
  <diagram id="3r0YMePGIQoZVy9jmusy" name="Page-1">
    <mxGraphModel dx="1113" dy="653" grid="1" gridSize="10" guides="1" tooltips="1" connect="1" arrows="1" fold="1" page="1" pageScale="1" pageWidth="827" pageHeight="1169" math="0" shadow="0">
      <root>
        <mxCell id="0" />
        <mxCell id="1" parent="0" />
        <mxCell id="slL0-rme4XRdYqvLOUN7-1" value="&lt;b&gt;&lt;font style=&quot;font-size: 18px&quot;&gt;第一次听到配送&lt;/font&gt;&lt;/b&gt;" style="text;html=1;strokeColor=none;fillColor=none;align=center;verticalAlign=middle;whiteSpace=wrap;rounded=0;" vertex="1" parent="1">
          <mxGeometry x="40" y="40" width="140" height="30" as="geometry" />
        </mxCell>
        <mxCell id="slL0-rme4XRdYqvLOUN7-5" value="Pool" style="swimlane;childLayout=stackLayout;resizeParent=1;resizeParentMax=0;startSize=20;horizontal=0;horizontalStack=1;fontSize=18;" vertex="1" parent="1">
          <mxGeometry x="50" y="80" width="370" height="480" as="geometry" />
        </mxCell>
        <mxCell id="slL0-rme4XRdYqvLOUN7-6" value="仓库" style="swimlane;startSize=20;fontSize=18;" vertex="1" parent="slL0-rme4XRdYqvLOUN7-5">
          <mxGeometry x="20" width="180" height="480" as="geometry" />
        </mxCell>
        <mxCell id="slL0-rme4XRdYqvLOUN7-13" style="edgeStyle=orthogonalEdgeStyle;rounded=0;orthogonalLoop=1;jettySize=auto;html=1;exitX=0.5;exitY=1;exitDx=0;exitDy=0;entryX=0.5;entryY=0;entryDx=0;entryDy=0;fontSize=14;" edge="1" parent="slL0-rme4XRdYqvLOUN7-6" source="slL0-rme4XRdYqvLOUN7-11" target="slL0-rme4XRdYqvLOUN7-12">
          <mxGeometry relative="1" as="geometry" />
        </mxCell>
        <mxCell id="slL0-rme4XRdYqvLOUN7-11" value="&lt;font style=&quot;font-size: 14px&quot;&gt;开始&lt;/font&gt;" style="ellipse;whiteSpace=wrap;html=1;aspect=fixed;fontSize=18;" vertex="1" parent="slL0-rme4XRdYqvLOUN7-6">
          <mxGeometry x="50" y="60" width="80" height="80" as="geometry" />
        </mxCell>
        <mxCell id="slL0-rme4XRdYqvLOUN7-12" value="装货" style="rounded=1;whiteSpace=wrap;html=1;fontSize=14;" vertex="1" parent="slL0-rme4XRdYqvLOUN7-6">
          <mxGeometry x="30" y="200" width="120" height="60" as="geometry" />
        </mxCell>
        <mxCell id="slL0-rme4XRdYqvLOUN7-7" value="司机" style="swimlane;startSize=20;fontSize=18;" vertex="1" parent="slL0-rme4XRdYqvLOUN7-5">
          <mxGeometry x="200" width="170" height="480" as="geometry" />
        </mxCell>
        <mxCell id="slL0-rme4XRdYqvLOUN7-18" style="edgeStyle=orthogonalEdgeStyle;rounded=0;orthogonalLoop=1;jettySize=auto;html=1;exitX=0.5;exitY=1;exitDx=0;exitDy=0;entryX=0.5;entryY=0;entryDx=0;entryDy=0;fontSize=14;" edge="1" parent="slL0-rme4XRdYqvLOUN7-7" source="slL0-rme4XRdYqvLOUN7-14" target="slL0-rme4XRdYqvLOUN7-17">
          <mxGeometry relative="1" as="geometry" />
        </mxCell>
        <mxCell id="slL0-rme4XRdYqvLOUN7-14" value="配送至各个门店" style="rounded=1;whiteSpace=wrap;html=1;fontSize=14;" vertex="1" parent="slL0-rme4XRdYqvLOUN7-7">
          <mxGeometry x="25" y="200" width="120" height="60" as="geometry" />
        </mxCell>
        <mxCell id="slL0-rme4XRdYqvLOUN7-17" value="&lt;font style=&quot;font-size: 14px&quot;&gt;结束&lt;/font&gt;" style="ellipse;whiteSpace=wrap;html=1;aspect=fixed;fontSize=18;" vertex="1" parent="slL0-rme4XRdYqvLOUN7-7">
          <mxGeometry x="45" y="310" width="80" height="80" as="geometry" />
        </mxCell>
        <mxCell id="slL0-rme4XRdYqvLOUN7-19" style="edgeStyle=orthogonalEdgeStyle;rounded=0;orthogonalLoop=1;jettySize=auto;html=1;exitX=1;exitY=0.5;exitDx=0;exitDy=0;entryX=0;entryY=0.5;entryDx=0;entryDy=0;fontSize=14;" edge="1" parent="slL0-rme4XRdYqvLOUN7-5" source="slL0-rme4XRdYqvLOUN7-12" target="slL0-rme4XRdYqvLOUN7-14">
          <mxGeometry relative="1" as="geometry" />
        </mxCell>
      </root>
    </mxGraphModel>
  </diagram>
</mxfile>
